<svg width="17px" height="17px" viewBox="0 0 17 17" fill="black" xmlns="http://www.w3.org/2000/svg">
    <path d="M14.4822343,2.48959236 C17.6828917,5.69024975 17.7974392,10.80837 14.8258766,14.1462745 L2.82555219,2.14595009 C6.16345666,-0.825612453 11.281577,-0.711065031 14.4822343,2.48959236 Z" id="Path"></path>
    <path d="M6.93257393,16.8602628 C5.29468805,16.5602071 3.72793345,15.776922 2.46141907,14.5104076 C1.19490468,13.2438933 0.41161961,11.6771387 0.11156386,10.0392528 L6.93257393,16.8602628 Z" id="Path" opacity="0.400000006"></path>
    <path d="M10.9477839,16.6331492 C10.3652357,16.809941 9.7674473,16.9228335 9.16543545,16.9718267 L0,7.80639125 C0.0489932325,7.20437941 0.161885723,6.606591 0.338677473,6.02404285 L10.9477839,16.6331492 Z" id="Path" opacity="0.600000024"></path>
    <path d="M13.7346962,15.1757861 C13.3269324,15.4980729 12.8964564,15.7776556 12.449287,16.0145341 L0.957292652,4.52253972 C1.1941711,4.07537035 1.47375377,3.6448943 1.79604065,3.23713051 L13.7346962,15.1757861 Z" id="Path" opacity="0.800000012"></path>
</svg>
